<svg height="512" viewBox="0 0 512 512" width="512" xmlns="http://www.w3.org/2000/svg"><g id="Shopping_bag" data-name="Shopping bag"><path d="m48 96h320v344h-320z" fill="#ff1d25"/><path d="m368 440v24a32 32 0 0 1 -32 32h-256a32 32 0 0 1 -32-32v-24z" fill="#e0e0e2"/><circle cx="392" cy="120" fill="#91cc04" r="72"/><path d="m80 472h72a8 8 0 0 0 0-16h-72a8 8 0 0 0 0 16z"/><path d="m176 472h8a8 8 0 0 0 0-16h-8a8 8 0 0 0 0 16z"/><path d="m392 40a80.1 80.1 0 0 0 -73.3 48h-22.7v-40a40.045 40.045 0 0 0 -40-40h-96a40.045 40.045 0 0 0 -40 40v40h-72a8 8 0 0 0 -8 8v368a40.045 40.045 0 0 0 40 40h256a40.045 40.045 0 0 0 40-40v-265.61a80 80 0 1 0 16-158.39zm-256 8a24.028 24.028 0 0 1 24-24h96a24.028 24.028 0 0 1 24 24v40h-144zm224 416a24.027 24.027 0 0 1 -24 24h-256a24.027 24.027 0 0 1 -24-24v-16h304zm0-32h-304v-328h64v32a8 8 0 0 0 16 0v-32h144v32a8 8 0 0 0 16 0v-32h17.61a80.013 80.013 0 0 0 46.39 89.3zm32-248a64 64 0 1 1 64-64 64.072 64.072 0 0 1 -64 64z"/><path d="m416 112h-16v-16a8 8 0 0 0 -16 0v16h-16a8 8 0 0 0 0 16h16v16a8 8 0 0 0 16 0v-16h16a8 8 0 0 0 0-16z"/></g></svg>