<?xml version="1.0"?>
<svg xmlns="http://www.w3.org/2000/svg" xmlns:xlink="http://www.w3.org/1999/xlink" xmlns:svgjs="http://svgjs.com/svgjs" version="1.1" width="512" height="512" x="0" y="0" viewBox="0 0 512 512" style="enable-background:new 0 0 512 512" xml:space="preserve" class=""><g>
<circle xmlns="http://www.w3.org/2000/svg" style="" cx="256" cy="256" r="256" fill="#273b7a" data-original="#273b7a" class=""/>
<path xmlns="http://www.w3.org/2000/svg" style="" d="M503.311,322.301L343.895,162.197l-10.983,0.047l-57.099-57.503l-25.343-0.229l-11.086-11.086  l-36.236,3.46l-29.284,29.284l17.489,273.636L299.68,508.273C398.396,491.299,477.772,417.807,503.311,322.301z" fill="#121149" data-original="#121149" class=""/>
<path xmlns="http://www.w3.org/2000/svg" style="" d="M256,426.667c-50.381,0-91.367-40.986-91.367-91.367V150.268c0-35.806,29.129-64.934,64.934-64.934  s64.933,29.129,64.933,64.934v142.739c0,21.228-17.272,38.5-38.5,38.5c-21.228,0-38.5-17.272-38.5-38.5V192.56  c0-6.665,5.403-12.067,12.067-12.067s12.067,5.403,12.067,12.067v100.447c0,7.921,6.444,14.365,14.365,14.365  s14.365-6.444,14.365-14.365V150.268c0-22.497-18.301-40.8-40.798-40.8s-40.8,18.303-40.8,40.8V335.3  c0,37.073,30.16,67.232,67.232,67.232s67.232-30.16,67.232-67.232V170.667c0-6.665,5.403-12.067,12.067-12.067  s12.067,5.403,12.067,12.067V335.3C347.367,385.681,306.381,426.667,256,426.667z" fill="#dda804" data-original="#fee187" class=""/>
<g xmlns="http://www.w3.org/2000/svg">
	<path style="" d="M270.365,150.268v142.739c0,7.921-6.444,14.365-14.365,14.365c-0.193,0-0.383-0.021-0.574-0.029   v24.15c0.191,0.002,0.381,0.014,0.574,0.014c21.228,0,38.5-17.272,38.5-38.5V150.268c0-26.617-16.103-49.533-39.074-59.547v28.015   C264.54,126.224,270.365,137.578,270.365,150.268z" fill="#bd9315" data-original="#ffc61b" class=""/>
	<path style="" d="M335.3,158.599c-6.665,0-12.067,5.403-12.067,12.067V335.3c0,37.073-30.16,67.232-67.232,67.232   c-0.193,0-0.383-0.014-0.574-0.014v24.135c0.193,0,0.381,0.014,0.574,0.014c50.381,0,91.367-40.986,91.367-91.367V170.667   C347.367,164.002,341.964,158.599,335.3,158.599z" fill="#bd9315" data-original="#ffc61b" class=""/>
</g>
<g xmlns="http://www.w3.org/2000/svg">
</g>
<g xmlns="http://www.w3.org/2000/svg">
</g>
<g xmlns="http://www.w3.org/2000/svg">
</g>
<g xmlns="http://www.w3.org/2000/svg">
</g>
<g xmlns="http://www.w3.org/2000/svg">
</g>
<g xmlns="http://www.w3.org/2000/svg">
</g>
<g xmlns="http://www.w3.org/2000/svg">
</g>
<g xmlns="http://www.w3.org/2000/svg">
</g>
<g xmlns="http://www.w3.org/2000/svg">
</g>
<g xmlns="http://www.w3.org/2000/svg">
</g>
<g xmlns="http://www.w3.org/2000/svg">
</g>
<g xmlns="http://www.w3.org/2000/svg">
</g>
<g xmlns="http://www.w3.org/2000/svg">
</g>
<g xmlns="http://www.w3.org/2000/svg">
</g>
<g xmlns="http://www.w3.org/2000/svg">
</g>
</g></svg>
