<svg id="color" enable-background="new 0 0 24 24" height="512" viewBox="0 0 24 24" width="512" xmlns="http://www.w3.org/2000/svg"><path d="m23.707 22.293-6.825-6.825c1.322-1.633 2.118-3.708 2.118-5.968 0-5.238-4.262-9.5-9.5-9.5s-9.5 4.262-9.5 9.5 4.262 9.5 9.5 9.5c2.26 0 4.335-.796 5.968-2.118l6.825 6.825c.391.391 1.023.391 1.414 0s.391-1.023 0-1.414z" fill="#607d8b"/><path d="m9.5 17.5c-4.411 0-8-3.589-8-8s3.589-8 8-8 8 3.589 8 8-3.589 8-8 8z" fill="#fff"/><path d="m2.786 2.786c-1.721 1.72-2.786 4.095-2.786 6.714 0 5.238 4.262 9.5 9.5 9.5 2.26 0 4.335-.796 5.968-2.118l6.825 6.825c.195.195.451.293.707.293s.512-.098.707-.293l-8.553-8.553c-1.448 1.449-3.448 2.346-5.654 2.346-4.411 0-8-3.589-8-8 0-2.206.897-4.206 2.346-5.654z" fill="#546d79"/><path d="m3.846 3.846c-1.449 1.448-2.346 3.448-2.346 5.654 0 4.411 3.589 8 8 8 2.206 0 4.206-.897 5.654-2.346z" fill="#dedede"/><path d="m9.5 5c-1.104 0-2 .897-2 2s.896 2 2 2 2-.897 2-2-.896-2-2-2z" fill="#90a4ae"/><path d="m12.75 14h-6.5c-.414 0-.75-.336-.75-.75v-.5c0-1.517 1.233-2.75 2.75-2.75h2.5c1.517 0 2.75 1.233 2.75 2.75v.5c0 .414-.336.75-.75.75z" fill="#90a4ae"/><g fill="#7d8f97"><path d="m9.5 5c-1.104 0-2 .897-2 2s.896 2 2 2z"/><path d="m9.5 10h-1.25c-1.517 0-2.75 1.233-2.75 2.75v.5c0 .414.336.75.75.75h3.25z"/></g></svg>