<svg height="464pt" viewBox="-32 0 464 464.03416" width="464pt" xmlns="http://www.w3.org/2000/svg"><path d="m32.015625 48.035156h272c17.675781 0 32 14.324219 32 32v352c0 17.671875-14.324219 32-32 32h-272c-17.671875 0-32-14.328125-32-32v-352c0-17.675781 14.328125-32 32-32zm0 0" fill="#3d9ae2"/><path d="m333.136719 445.152344c-5.167969 11.457031-16.550781 18.835937-29.121094 18.882812h-272c-17.648437-.054687-31.9453125-14.351562-32-32v-352c.046875-12.570312 7.425781-23.953125 18.882813-29.121094-1.902344 4.113282-2.886719 8.589844-2.882813 13.121094v368c.027344 8.824219 7.175781 15.972656 16 16h288c4.53125.003906 9.007813-.980468 13.121094-2.882812zm0 0" fill="#1e81ce"/><path d="m296.015625 80.035156h-256c-4.417969 0-8 3.582032-8 8v336c0 4.417969 3.582031 8 8 8h256c4.417969 0 8-3.582031 8-8v-336c0-4.417968-3.582031-8-8-8zm0 0" fill="#e6e7e8"/><path d="m304.015625 416.035156v8c0 4.417969-3.582031 8-8 8h-256c-4.417969 0-8-3.582031-8-8v-336c0-4.417968 3.582031-8 8-8h8v328c0 4.417969 3.582031 8 8 8zm0 0" fill="#d1d3d4"/><path d="m400.015625 288.035156c-.007813 43.257813-24.917969 82.648438-64 101.199219-10.113281 4.824219-20.902344 8.089844-32 9.679687-5.300781.738282-10.644531 1.113282-16 1.121094-61.855469 0-112-50.144531-112-112 0-61.855468 50.144531-112 112-112 5.355469.003906 10.699219.378906 16 1.117188 55.09375 7.996094 95.972656 55.210937 96 110.882812zm0 0" fill="#ffd422"/><path d="m374.816406 358.675781c-10.503906 12.9375-23.757812 23.378907-38.800781 30.558594-10.113281 4.824219-20.902344 8.089844-32 9.679687-5.300781.738282-10.644531 1.113282-16 1.121094-47.371094.035156-89.640625-29.757812-105.523437-74.390625-15.882813-44.632812-1.941407-94.429687 34.804687-124.332031-27.386719 33.476562-33.023437 79.738281-14.476563 118.8125 18.542969 39.074219 57.945313 63.957031 101.195313 63.910156 5.355469-.007812 10.699219-.382812 16-1.121094 20.152344-2.878906 39.117187-11.265624 54.800781-24.238281zm0 0" fill="#ebbf00"/><path d="m192.015625 25.394531v22.640625h16c17.675781 0 32 14.324219 32 32v16h-144v-16c0-17.675781 14.328125-32 32-32h16v-24c-.007813-6.59375 2.695313-12.902344 7.476563-17.441406s11.222656-6.910156 17.804687-6.5585938c13.042969 1.2031248 22.953125 12.2617188 22.71875 25.3593748zm0 0" fill="#ff9811"/><path d="m256.015625 80.035156h-16c0-17.675781-14.324219-32-32-32h16c17.675781 0 32 14.324219 32 32zm0 0" fill="#1e81ce"/><path d="m80.015625 264.035156h64v64h-64zm0 0" fill="#5aaae7"/><path d="m144.015625 312.035156v16h-64v-64h16v32c0 8.835938 7.164063 16 16 16zm0 0" fill="#3d9ae2"/><path d="m80.015625 216.035156v-64h64v64zm0 0" fill="#5aaae7"/><path d="m144.015625 200.035156v16h-64v-64h16v32c0 8.835938 7.164063 16 16 16zm0 0" fill="#3d9ae2"/><path d="m304.015625 288.035156c0 8.835938-7.160156 16-16 16-8.835937 0-16-7.164062-16-16 0-8.835937 7.164063-16 16-16 8.839844 0 16 7.164063 16 16zm0 0" fill="#ff9811"/><path d="m240.015625 80.035156h16v16h-16zm0 0" fill="#d1d3d4"/><path d="m160.015625 24.035156h16v16h-16zm0 0" fill="#cc7400"/><path d="m280.015625 224.035156h16v48h-16zm0 0" fill="#ee8700"/><path d="m240.015625 280.035156h32v16h-32zm0 0" fill="#ee8700"/><path d="m120.015625 200.035156c-2.121094 0-4.15625-.84375-5.65625-2.34375l-24-24 11.3125-11.3125 18.34375 18.34375 34.34375-34.34375 11.3125 11.3125-40 40c-1.5 1.5-3.535156 2.34375-5.65625 2.34375zm0 0" fill="#ff5023"/><g fill="#cc7400"><path d="m288.015625 312.035156c-13.253906 0-24-10.746094-24-24s10.746094-24 24-24c13.257813 0 24 10.746094 24 24s-10.742187 24-24 24zm0-32c-4.417969 0-8 3.582032-8 8 0 4.417969 3.582031 8 8 8s8-3.582031 8-8c0-4.417968-3.582031-8-8-8zm0 0"/><path d="m192.015625 280.035156h16v16h-16zm0 0"/><path d="m280.015625 368.035156h16v16h-16zm0 0"/><path d="m368.015625 280.035156h16v16h-16zm0 0"/><path d="m280.015625 192.035156h16v16h-16zm0 0"/></g></svg>