<svg id="Capa_1" enable-background="new 0 0 512 512" height="512" viewBox="0 0 512 512" width="512" xmlns="http://www.w3.org/2000/svg"><g><g><g fill="#d2e1fe"><path d="m349.444 421.119h121.056c11.046 0 20-8.954 20-20v-263.88c0-5.293-2.098-10.371-5.835-14.12l-109.389-109.739c-3.753-3.765-8.849-5.88-14.165-5.88h-177.924c-11.046 0-20 8.954-20 20v61.954 312.005c0 11.062 8.979 20.023 20.041 20z"/><path d="m490.5 137.24v11.36l-111.06.37h-.03c-16.54 0-30-13.46-30-30v-111.47h11.7c5.32 0 10.41 2.12 14.17 5.88l109.38 109.74c3.74 3.75 5.84 8.83 5.84 14.12z"/><path d="m369.09 219.91v201.21h-19.65l-166.21.34c-11.06.02-20.04-8.94-20.04-20v-331.29h56.51c10.55 0 20.88 4.29 28.33 11.76l109.39 109.74c7.52 7.55 11.67 17.58 11.67 28.24z"/></g><path d="m369.44 421.12-166.21.34c-.4 0-.79-.01-1.19-.04l147.4-.3z" fill="#c5d8fc"/><path d="m490.5 137.24v11.36l-111.06.37h-.03c-16.54 0-30-13.46-30-30v-111.47h11.7c5.32 0 10.41 2.12 14.17 5.88l109.38 109.74c3.74 3.75 5.84 8.83 5.84 14.12z" fill="#aac7fa"/><path d="m488.54 128.61-109.13.36c-5.52 0-10-4.47-10-10 0 0 0-69.78 0-109.66 2.17.98 4.16 2.36 5.87 4.07l109.38 109.74c1.61 1.62 2.92 3.47 3.88 5.49z" fill="#c5d8fc"/><g><path d="m445.191 306.267h-105.953c-4.143 0-7.5-3.357-7.5-7.5s3.357-7.5 7.5-7.5h105.953c4.143 0 7.5 3.357 7.5 7.5s-3.357 7.5-7.5 7.5z" fill="#f9f8f8"/></g><g><path d="m445.074 249.668h-97.456c-4.207 0-7.617-3.357-7.617-7.5s3.41-7.5 7.617-7.5h97.456c4.207 0 7.617 3.357 7.617 7.5s-3.41 7.5-7.617 7.5z" fill="#f9f8f8"/></g><path d="m369.09 219.91v201.21h-19.65l-166.21.34c-11.06.02-20.04-8.94-20.04-20v-331.29h56.51c10.55 0 20.88 4.29 28.33 11.76l109.39 109.74c7.52 7.55 11.67 17.58 11.67 28.24z" fill="#c5d8fc"/><path d="m369.09 234.67v15h-21.47c-4.21 0-7.62-3.36-7.62-7.5s3.41-7.5 7.62-7.5z" fill="#ede8e5"/><path d="m369.09 291.27v15h-29.85c-4.14 0-7.5-3.36-7.5-7.5 0-4.15 3.36-7.5 7.5-7.5z" fill="#ede8e5"/><path d="m349.09 219.91v11.62l-111.07.12h-.02c-16.54 0-30-13.46-30-30l.42-111.48h11.28c5.32 0 10.41 2.12 14.17 5.88l109.38 109.74c3.74 3.75 5.84 8.83 5.84 14.12z" fill="#aad7e5"/><path d="m349.089 484.5c0 11.046-8.954 20-20 20h-287.589c-11.046 0-20-8.954-20-20v-374.328c0-11.046 8.954-20 20-20h178.2c5.315 0 10.412 2.116 14.165 5.88l109.389 109.739c3.737 3.749 5.835 8.826 5.835 14.12z" fill="#aad7e5"/><path d="m349.09 219.91v11.62l-111.07.12h-.02c-16.54 0-30-13.46-30-30l.42-111.48h11.28c5.32 0 10.41 2.12 14.17 5.88l109.38 109.74c3.74 3.75 5.84 8.83 5.84 14.12z" fill="#88bcd3"/><g><g><path d="m139.674 268.111h-76.969c-4.143 0-7.5-3.357-7.5-7.5s3.357-7.5 7.5-7.5h76.969c4.143 0 7.5 3.357 7.5 7.5s-3.358 7.5-7.5 7.5z" fill="#f9f8f8"/></g><g><path d="m308.057 322.728h-246.29c-4.143 0-7.5-3.357-7.5-7.5s3.357-7.5 7.5-7.5h246.29c4.143 0 7.5 3.357 7.5 7.5s-3.358 7.5-7.5 7.5z" fill="#f9f8f8"/></g><g><path d="m308.823 377.344h-247.056c-4.143 0-7.5-3.357-7.5-7.5s3.357-7.5 7.5-7.5h247.057c4.143 0 7.5 3.357 7.5 7.5s-3.358 7.5-7.501 7.5z" fill="#f9f8f8"/></g><g><path d="m160.324 431.959h-97.619c-4.143 0-7.5-3.357-7.5-7.5s3.357-7.5 7.5-7.5h97.619c4.143 0 7.5 3.357 7.5 7.5s-3.357 7.5-7.5 7.5z" fill="#f9f8f8"/></g></g><path d="m347.24 211.53-109.24.12c-5.52 0-10-4.48-10-10l.41-109.47c2.01.96 3.86 2.27 5.46 3.87l109.38 109.74c1.68 1.68 3.02 3.62 3.99 5.74z" fill="#98cfde"/></g><g><path d="m62.705 268.111h76.969c4.143 0 7.5-3.357 7.5-7.5s-3.357-7.5-7.5-7.5h-76.969c-4.143 0-7.5 3.357-7.5 7.5s3.358 7.5 7.5 7.5z"/><path d="m61.767 322.728h246.29c4.143 0 7.5-3.357 7.5-7.5s-3.357-7.5-7.5-7.5h-246.29c-4.143 0-7.5 3.357-7.5 7.5s3.357 7.5 7.5 7.5z"/><path d="m308.823 362.344h-247.056c-4.143 0-7.5 3.357-7.5 7.5s3.357 7.5 7.5 7.5h247.057c4.143 0 7.5-3.357 7.5-7.5s-3.358-7.5-7.501-7.5z"/><path d="m160.324 416.959h-97.619c-4.143 0-7.5 3.357-7.5 7.5s3.357 7.5 7.5 7.5h97.619c4.143 0 7.5-3.357 7.5-7.5s-3.357-7.5-7.5-7.5z"/><path d="m490.5 353.071c-4.143 0-7.5 3.357-7.5 7.5v40.548c0 6.893-5.607 12.5-12.5 12.5h-29.5c-4.143 0-7.5 3.357-7.5 7.5s3.357 7.5 7.5 7.5h29.5c15.163 0 27.5-12.337 27.5-27.5v-40.548c0-4.142-3.357-7.5-7.5-7.5z"/><path d="m406 413.619h-49.41v-107.352h88.602c4.143 0 7.5-3.357 7.5-7.5s-3.357-7.5-7.5-7.5h-88.602v-41.599h88.602c4.143 0 7.5-3.357 7.5-7.5s-3.357-7.5-7.5-7.5h-88.602v-14.757c0-7.329-2.85-14.225-8.024-19.415l-109.39-109.74c-5.123-5.138-12.222-8.084-19.476-8.084h-49.014v-18.989c0-4.143-3.357-7.5-7.5-7.5s-7.5 3.357-7.5 7.5v18.989h-114.186c-15.164 0-27.5 12.336-27.5 27.5v374.328c0 15.164 12.336 27.5 27.5 27.5h287.59c15.164 0 27.5-12.336 27.5-27.5v-55.881h49.41c4.143 0 7.5-3.357 7.5-7.5s-3.357-7.5-7.5-7.5zm-74.976-209.473h-93.021c-1.379 0-2.5-1.121-2.5-2.5v-93.327zm10.566 280.354c0 6.893-5.607 12.5-12.5 12.5h-287.59c-6.893 0-12.5-5.607-12.5-12.5v-374.328c0-6.893 5.607-12.5 12.5-12.5h178.2c.269 0 .535.023.803.041v103.933c0 9.649 7.851 17.5 17.5 17.5h103.55c.015.255.037.508.037.766z"/><path d="m489.977 117.824-109.389-109.737c-5.122-5.14-12.221-8.087-19.477-8.087h-177.924c-15.163 0-27.5 12.336-27.5 27.5-.721 5.018 1.78 10.647 7.5 10.576 5.722.069 8.22-5.559 7.5-10.576 0-6.893 5.607-12.5 12.5-12.5 0 0 178.46.023 178.728.041v103.933c0 9.649 7.851 17.5 17.5 17.5h21.027c4.143 0 7.5-3.357 7.5-7.5s-3.357-7.5-7.5-7.5h-21.027c-1.379 0-2.5-1.121-2.5-2.5v-93.326l95.521 95.825h-37c-4.143 0-7.5 3.357-7.5 7.5s3.357 7.5 7.5 7.5h47.527c.015.255.037.508.037.766v188.226c0 4.143 3.357 7.5 7.5 7.5s7.5-3.357 7.5-7.5v-188.226c0-7.328-2.85-14.223-8.023-19.415z"/></g></g></svg>