<svg height="512" viewBox="0 0 64 64" width="512" xmlns="http://www.w3.org/2000/svg"><g id="Fill_Outline" data-name="Fill Outline"><g id="Color"><g><path d="m3 9h44v52h-44z" fill="#aae1f9"/><path d="m9 23v-7h26a3 3 0 0 0 3-3v-4h-35v52h44v-8h-8a30 30 0 0 1 -30-30z" fill="#57b7eb"/><path d="m33 5a2 2 0 0 0 -2-2h-12a2 2 0 0 0 -2 2 2 2 0 0 1 -2 2h-3v6h26v-6h-3a2 2 0 0 1 -2-2z" fill="#d0d8da"/><path d="m26 10a6 6 0 0 1 -6-6v-1h-1a2 2 0 0 0 -2 2 2 2 0 0 1 -2 2h-3v6h26v-3z" fill="#93999a"/><path d="m56 43a8.979 8.979 0 0 0 -.157-1.642l2.183-1.26-3-5.2-2.183 1.26a8.978 8.978 0 0 0 -2.843-1.635v-2.523h-6v2.523a8.978 8.978 0 0 0 -2.843 1.639l-2.183-1.262-3 5.2 2.183 1.26a8.665 8.665 0 0 0 0 3.284l-2.183 1.256 3 5.2 2.183-1.26a8.978 8.978 0 0 0 2.843 1.637v2.523h6v-2.523a8.978 8.978 0 0 0 2.843-1.639l2.183 1.26 3-5.2-2.183-1.26a8.979 8.979 0 0 0 .157-1.638zm-9 4a4 4 0 1 1 4-4 4 4 0 0 1 -4 4z" fill="#f9e109"/><path d="m8 22h8v8h-8z" fill="#f9e109"/><path d="m8 35h8v8h-8z" fill="#f9e109"/><path d="m8 47h8v8h-8z" fill="#fcbc04"/><path d="m36 26a6.065 6.065 0 0 0 -.1-1.094l2.032-1.174-2-3.464-2.032 1.174a5.965 5.965 0 0 0 -1.9-1.093v-2.349h-4v2.349a5.965 5.965 0 0 0 -1.895 1.093l-2.033-1.174-2 3.464 2.028 1.174a5.806 5.806 0 0 0 0 2.188l-2.032 1.174 2 3.464 2.033-1.174a5.965 5.965 0 0 0 1.899 1.093v2.349h4v-2.349a5.965 5.965 0 0 0 1.9-1.093l2.033 1.174 2-3.464-2.033-1.174a6.065 6.065 0 0 0 .1-1.094zm-6 2a2 2 0 1 1 2-2 2 2 0 0 1 -2 2z" fill="#f9e109"/><g fill="#fcbc04"><path d="m37 29a9.952 9.952 0 0 1 -5.521-1.665 1.993 1.993 0 1 1 -2.814-2.815 9.932 9.932 0 0 1 -1.5-3.785 5.981 5.981 0 0 0 -1.055.707l-2.033-1.174-2 3.464 2.023 1.174a5.806 5.806 0 0 0 0 2.188l-2.032 1.174 2 3.464 2.033-1.174a5.965 5.965 0 0 0 1.899 1.093v2.349h4v-2.349a5.965 5.965 0 0 0 1.9-1.093l2.033 1.174 1.573-2.732z"/><path d="m8 30h1.83a30.021 30.021 0 0 1 -.83-7v-1h-1z"/><path d="m8 43h8v-.745a29.986 29.986 0 0 1 -4.5-7.255h-3.5z"/><path d="m54 48a11.927 11.927 0 0 1 -5.442-1.315 4 4 0 0 1 -5.243-5.243 11.927 11.927 0 0 1 -1.315-5.442v-.467a9.274 9.274 0 0 0 -.843.629l-2.183-1.262-3 5.2 2.183 1.26a8.665 8.665 0 0 0 0 3.284l-2.183 1.256 3 5.2 2.183-1.26a8.978 8.978 0 0 0 2.843 1.637v2.523h6v-2.523a8.978 8.978 0 0 0 2.843-1.639l2.183 1.26 1.789-3.098z"/></g></g></g><g id="Outline_copy" data-name="Outline copy"><g fill="#323232"><path d="m47 57a1 1 0 0 0 -1 1v2h-42v-11a1 1 0 0 0 -2 0v12a1 1 0 0 0 1 1h44a1 1 0 0 0 1-1v-3a1 1 0 0 0 -1-1z"/><path d="m3 46a1 1 0 0 0 1-1v-35h7v3a1 1 0 0 0 1 1h6a1 1 0 0 0 0-2h-5v-4h2a3 3 0 0 0 3-3 1 1 0 0 1 1-1h12a1 1 0 0 1 1 1 3 3 0 0 0 3 3h2v4h-15a1 1 0 0 0 0 2h16a1 1 0 0 0 1-1v-3h7v18a1 1 0 0 0 2 0v-19a1 1 0 0 0 -1-1h-8v-1a1 1 0 0 0 -1-1h-3a1 1 0 0 1 -1-1 3 3 0 0 0 -3-3h-12a3 3 0 0 0 -3 3 1 1 0 0 1 -1 1h-3a1 1 0 0 0 -1 1v1h-8a1 1 0 0 0 -1 1v36a1 1 0 0 0 1 1z"/><path d="m58.526 45.036-1.592-.919a9.477 9.477 0 0 0 0-2.233l1.592-.92a1 1 0 0 0 .367-1.366l-3-5.2a1 1 0 0 0 -1.367-.366l-1.594.921a9.859 9.859 0 0 0 -1.932-1.11v-1.843a1 1 0 0 0 -1-1h-6a1 1 0 0 0 -1 1v1.843a9.859 9.859 0 0 0 -1.932 1.114l-1.594-.921a1 1 0 0 0 -1.367.366l-3 5.2a1 1 0 0 0 .367 1.366l1.592.92a9.477 9.477 0 0 0 0 2.233l-1.592.919a1 1 0 0 0 -.367 1.366l3 5.2a1 1 0 0 0 1.367.366l2.183-1.26a1 1 0 0 0 -1-1.733l-1.317.761-2-3.464 1.317-.76a1 1 0 0 0 .483-1.049 7.672 7.672 0 0 1 0-2.918 1 1 0 0 0 -.483-1.049l-1.317-.76 2-3.464 1.317.761a1 1 0 0 0 1.151-.107 7.938 7.938 0 0 1 2.526-1.456 1 1 0 0 0 .666-.951v-1.523h4v1.523a1 1 0 0 0 .666.943 7.938 7.938 0 0 1 2.526 1.456 1 1 0 0 0 1.151.107l1.317-.761 2 3.464-1.317.76a1 1 0 0 0 -.483 1.049 7.672 7.672 0 0 1 0 2.918 1 1 0 0 0 .483 1.049l1.317.76-2 3.464-1.317-.761a1 1 0 0 0 -1.151.107 7.938 7.938 0 0 1 -2.526 1.456 1 1 0 0 0 -.666.943v1.523h-4v-.523a1 1 0 0 0 -2 0v1.523a1 1 0 0 0 1 1h6a1 1 0 0 0 1-1v-1.843a9.859 9.859 0 0 0 1.932-1.114l1.594.921a1 1 0 0 0 1.367-.366l3-5.2a1 1 0 0 0 -.367-1.366z"/><path d="m47 48a5 5 0 1 0 -5-5 5.006 5.006 0 0 0 5 5zm0-8a3 3 0 1 1 -3 3 3 3 0 0 1 3-3z"/><path d="m38.794 23.232-2-3.464a1 1 0 0 0 -1.366-.366l-1.454.84a6.87 6.87 0 0 0 -.974-.561v-1.681a1 1 0 0 0 -1-1h-4a1 1 0 0 0 -1 1v1.681a6.87 6.87 0 0 0 -.974.561l-1.454-.84a1 1 0 0 0 -1.366.366l-2 3.464a1 1 0 0 0 .366 1.366l1.452.839c-.016.189-.024.376-.024.563s.008.374.024.563l-1.452.839a1 1 0 0 0 1 1.732l2.028-1.174a1 1 0 0 0 .484-1.047 4.78 4.78 0 0 1 0-1.826 1 1 0 0 0 -.484-1.047l-1.166-.674 1-1.732 1.166.674a1 1 0 0 0 1.15-.106 4.978 4.978 0 0 1 1.579-.91 1 1 0 0 0 .671-.943v-1.349h2v1.349a1 1 0 0 0 .667.943 4.978 4.978 0 0 1 1.579.91 1 1 0 0 0 1.15.106l1.166-.674 1 1.732-1.162.674a1 1 0 0 0 -.484 1.047 4.78 4.78 0 0 1 0 1.826 1 1 0 0 0 .484 1.047l1.166.674-1 1.732-1.166-.674a1 1 0 0 0 -1.15.106 4.978 4.978 0 0 1 -1.579.91 1 1 0 0 0 -.667.943v1.349h-2.004v-1.349a1 1 0 0 0 -.667-.943 4.978 4.978 0 0 1 -1.579-.91 1 1 0 0 0 -1.15-.106l-2.032 1.174a1 1 0 0 0 1 1.732l1.454-.84a6.87 6.87 0 0 0 .974.561v1.681a1 1 0 0 0 1 1h4a1 1 0 0 0 1-1v-1.681a6.87 6.87 0 0 0 .974-.561l1.454.84a1 1 0 0 0 1.366-.366l2-3.464a1 1 0 0 0 -.366-1.366l-1.452-.839c.016-.189.024-.376.024-.563s-.008-.374-.024-.563l1.452-.839a1 1 0 0 0 .366-1.366z"/><path d="m33 26a3 3 0 1 0 -3 3 3 3 0 0 0 3-3zm-4 0a1 1 0 1 1 1 1 1 1 0 0 1 -1-1z"/><path d="m40 26a1 1 0 0 0 1 1 1 1 0 0 1 1 1 1 1 0 0 0 2 0 3 3 0 0 0 -3-3 1 1 0 0 0 -1 1z"/><path d="m32 41a1 1 0 0 0 0-2 1 1 0 0 1 -1-1 1 1 0 0 0 -2 0 3 3 0 0 0 3 3z"/><path d="m18.768 22.36a1 1 0 0 0 -1.408-.128l-.36.3v-.532a1 1 0 0 0 -1-1h-8a1 1 0 0 0 -1 1v8a1 1 0 0 0 1 1h8a1 1 0 0 0 1-1v-4.865l1.64-1.367a1 1 0 0 0 .128-1.408zm-3.768 6.64h-6v-6h6v1.2l-2.938 2.449-1.355-1.354a1 1 0 1 0 -1.414 1.414l2 2a1 1 0 0 0 1.347.061l2.36-1.97z"/><path d="m8 44h8a1 1 0 0 0 1-1v-8a1 1 0 0 0 -1-1h-8a1 1 0 0 0 -1 1v8a1 1 0 0 0 1 1zm5.414-5 1.586-1.586v3.172zm.172 3h-3.172l1.586-1.586zm-1.586-4.414-1.586-1.586h3.172zm-1.414 1.414-1.586 1.586v-3.172z"/><path d="m7 55a1 1 0 0 0 1 1h8a1 1 0 0 0 1-1v-4.865l1.64-1.367a1 1 0 0 0 -1.28-1.536l-.36.3v-.532a1 1 0 0 0 -1-1h-8a1 1 0 0 0 -1 1zm2-7h6v1.2l-2.938 2.449-1.355-1.354a1 1 0 1 0 -1.414 1.414l2 2a1 1 0 0 0 1.347.061l2.36-1.97v2.2h-6z"/><path d="m21 44h6a1 1 0 0 0 0-2h-6a1 1 0 0 0 0 2z"/><path d="m21 56h15a1 1 0 0 0 0-2h-15a1 1 0 0 0 0 2z"/><path d="m21 52h8a1 1 0 0 0 0-2h-8a1 1 0 0 0 0 2z"/><path d="m21 40h4a1 1 0 0 0 0-2h-4a1 1 0 0 0 0 2z"/></g></g></g></svg>