<?xml version="1.0"?>
<svg xmlns="http://www.w3.org/2000/svg" xmlns:xlink="http://www.w3.org/1999/xlink" xmlns:svgjs="http://svgjs.com/svgjs" version="1.1" width="512" height="512" x="0" y="0" viewBox="0 0 439.6 439.6" style="enable-background:new 0 0 512 512" xml:space="preserve" class=""><g>
<polygon xmlns="http://www.w3.org/2000/svg" style="" points="109.2,136.24 183.68,61.76 293.28,171.36 144.32,171.36 " fill="#edbec2" data-original="#beeddf" class=""/>
<path xmlns="http://www.w3.org/2000/svg" style="" d="M70.8,97.84c-20.568-20.568-20.568-53.912,0-74.48s53.912-20.568,74.48,0l38.4,38.4l-74.48,74.48  L70.8,97.84z" fill="#78b4b7" data-original="#a3d3c7" class=""/>
<g xmlns="http://www.w3.org/2000/svg">
	<path style="" d="M349.44,325.84c-6.344,0.04-12.44-2.44-16.96-6.88l-32.72-32.72c-5.176,1.648-10.568,2.488-16,2.48   c-14.016,0-27.464-5.512-37.44-15.36l-102-101.6h148.96l27.52,27.52c13.992,13.944,18.976,34.568,12.88,53.36l32.72,32.72   c9.28,9.464,9.128,24.664-0.336,33.936c-4.44,4.352-10.4,6.816-16.624,6.864L349.44,325.84L349.44,325.84z" fill="#004091" data-original="#49897a" class=""/>
	<path style="" d="M360.16,431.52c-13.256,0-24-10.744-24-24c2.448-16.184,8.456-31.624,17.6-45.2l6.4-8.56l6.4,8.56   c9.136,13.584,15.144,29.016,17.6,45.2C384.16,420.776,373.416,431.52,360.16,431.52z" fill="#004091" data-original="#49897a" class=""/>
</g>
<g xmlns="http://www.w3.org/2000/svg">
	<path style="" d="M371.76,324.64c12.504-12.488,12.512-32.752,0.024-45.256c-0.008-0.008-0.016-0.016-0.024-0.024   l-29.44-29.44c4.88-20.4-1.176-41.872-16-56.72L194.96,61.76l11.2-11.2c3.352-2.872,3.744-7.928,0.872-11.28   c-2.872-3.352-7.928-3.744-11.28-0.872c-0.312,0.264-0.608,0.56-0.872,0.872l-11.2,11.2l-32.72-32.72   c-23.68-23.68-62.08-23.68-85.76,0s-23.68,62.08,0,85.76l32.72,32.72l-9.52,9.52c-3.112,3.136-3.096,8.208,0.04,11.32   s8.208,3.096,11.32-0.04l9.44-9.28l131.44,131.28c11.408,11.472,26.944,17.872,43.12,17.76c4.656,0,9.304-0.544,13.84-1.6   l29.44,29.44c12.488,12.504,32.752,12.512,45.256,0.024c0.008-0.008,0.016-0.016,0.024-0.024H371.76z M76.48,92.24   C59.024,74.768,59.048,46.456,76.52,29s45.784-17.432,63.24,0.04l32.72,32.72l-63.12,63.12L76.48,92.24z M120.48,136.24   l63.12-63.12l90.4,90.64H147.76L120.48,136.24z M338.08,313.28l-32.72-32.72c-2.088-2.096-5.168-2.864-8-2   c-16.024,5.192-33.608,1.032-45.6-10.8l-88-88H290l25.2,25.2c11.856,11.848,16.056,29.344,10.88,45.28   c-0.864,2.832-0.096,5.912,2,8l32.72,32.72c6.248,6.248,6.256,16.376,0.016,22.624c-0.008,0.008-0.008,0.008-0.016,0.016   c-6.312,6.184-16.44,6.088-22.624-0.224C338.144,313.344,338.112,313.312,338.08,313.28z" fill="#101a1e" data-original="#101a1e" class=""/>
	<path style="" d="M360.16,349.28c-16,0-32,45.6-32,58.32c0,17.672,14.328,32,32,32s32-14.328,32-32   c-2.584-19.576-10.344-38.104-22.48-53.68C367.28,351.128,363.84,349.448,360.16,349.28z M371.76,418.88   c-2.984,3.008-7.04,4.704-11.28,4.72l0,0c-8.84,0-16-7.16-16-16c2.48-14.432,7.928-28.184,16-40.4   c8.072,12.216,13.52,25.968,16,40.4C376.464,411.84,374.768,415.896,371.76,418.88z" fill="#101a1e" data-original="#101a1e" class=""/>
</g>
<g xmlns="http://www.w3.org/2000/svg">
</g>
<g xmlns="http://www.w3.org/2000/svg">
</g>
<g xmlns="http://www.w3.org/2000/svg">
</g>
<g xmlns="http://www.w3.org/2000/svg">
</g>
<g xmlns="http://www.w3.org/2000/svg">
</g>
<g xmlns="http://www.w3.org/2000/svg">
</g>
<g xmlns="http://www.w3.org/2000/svg">
</g>
<g xmlns="http://www.w3.org/2000/svg">
</g>
<g xmlns="http://www.w3.org/2000/svg">
</g>
<g xmlns="http://www.w3.org/2000/svg">
</g>
<g xmlns="http://www.w3.org/2000/svg">
</g>
<g xmlns="http://www.w3.org/2000/svg">
</g>
<g xmlns="http://www.w3.org/2000/svg">
</g>
<g xmlns="http://www.w3.org/2000/svg">
</g>
<g xmlns="http://www.w3.org/2000/svg">
</g>
</g></svg>
