<svg height="512" viewBox="0 0 58 58" width="512" xmlns="http://www.w3.org/2000/svg"><g id="Page-1" fill="none" fill-rule="evenodd"><g id="036---Browser-Survey" fill-rule="nonzero"><rect id="Rectangle-path" fill="#2fa8cc" height="58" rx="4" width="58"/><rect id="Rectangle-path" fill="#955ba5" height="14" rx="2" width="14" x="33" y="18"/><path id="Shape" d="m58 4 .0000002 8h-58.00000035l.00000015-8c-.00029188-1.06095541.42104175-2.07854066 1.17125054-2.82874946.7502088-.75020879 1.76779405-1.17154242 2.82874946-1.17125054h50c1.0609554-.00029188 2.0785407.42104175 2.8287495 1.17125054.7502088.7502088 1.1715424 1.76779405 1.1712505 2.82874946z" fill="#2c3e50"/><circle id="Oval" cx="6" cy="6" fill="#c03a2b" r="2"/><circle id="Oval" cx="14" cy="6" fill="#f0c419" r="2"/><circle id="Oval" cx="22" cy="6" fill="#4fba6f" r="2"/><circle id="Oval" cx="17" cy="25" fill="#f0c419" r="8"/><circle id="Oval" cx="17" cy="45" fill="#f0c419" r="8"/><circle id="Oval" cx="13" cy="24" fill="#2c3e50" r="1"/><circle id="Oval" cx="21" cy="24" fill="#2c3e50" r="1"/><path id="Shape" d="m17 29c-1.2050504-.0010115-2.2929486-.7218026-2.7637-1.8311-.2157224-.508599.021701-1.0957776.5303-1.3115s1.0957776.021701 1.3115.5303c.1559752.3711492.5193083.6125721.9219.6125721s.7659248-.2414229.9219-.6125721c.2157224-.508599.802901-.7460224 1.3115-.5303s.7460224.802901.5303 1.3115c-.1510324.3557386-.3692113.6790346-.6426.9522-.5620508.5633362-1.325331.8796093-2.1211.8789z" fill="#802d40"/><circle id="Oval" cx="13" cy="44" fill="#2c3e50" r="1"/><circle id="Oval" cx="21" cy="44" fill="#2c3e50" r="1"/><path id="Shape" d="m18.8428 49.2222c-.4014874-.0003641-.7639532-.2404598-.9209-.61-.1559752-.3711492-.5193083-.6125721-.9219-.6125721s-.7659248.2414229-.9219.6125721c-.2157224.508599-.802901.7460224-1.3115.5303-.508599-.2157225-.7460224-.802901-.5303-1.3115.1510324-.3557386.3692113-.6790346.6426-.9522.273054-.2745324.597173-.4930011.9541-.6431.7466206-.3124945 1.5873794-.3124945 2.334 0 .3573443.1503232.6818105.3691366.9551.6441.2729587.2729287.4907931.5958779.6416.9512.1304219.3089805.0975446.6627313-.0875844.9423849-.185129.2796535-.4979375.4480914-.8333156.4487151z" fill="#802d40"/><rect id="Rectangle-path" fill="#955ba5" height="14" rx="2" width="14" x="33" y="38"/><path id="Shape" d="m40 29c-.2652671.0003072-.5197135-.1051423-.707-.293l-3-3c-.3789722-.3923789-.3735524-1.0160848.0121814-1.4018186s1.0094397-.3911536 1.4018186-.0121814l2.293 2.2929 9.293-9.2929c.3923789-.3789722 1.0160848-.3735524 1.4018186.0121814s.3911536 1.0094397.0121814 1.4018186l-10 10c-.1872865.1878577-.4417329.2933072-.707.293z" fill="#fff"/></g></g></svg>