<svg id="Layer_1" enable-background="new 0 0 128 128" height="512" viewBox="0 0 128 128" width="512" xmlns="http://www.w3.org/2000/svg"><g><g><g><path d="m16.315 67.53v-19.934c0-.552-.447-1-1-1s-1 .448-1 1v19.934c0 2.824.502 5.586 1.492 8.209.151.4.531.647.936.647.117 0 .237-.021.354-.065.517-.195.777-.772.582-1.289-.905-2.395-1.364-4.92-1.364-7.502z" fill="#e6e7e8"/></g><g><path d="m37.629 15.263c7.38 0 14.136 3.748 18.071 10.026.294.467.91.609 1.379.316.468-.293.609-.911.316-1.378-4.305-6.865-11.694-10.963-19.767-10.963-12.855 0-23.313 10.458-23.313 23.314v4.718c0 .552.447 1 1 1s1-.448 1-1v-4.718c0-11.754 9.562-21.315 21.314-21.315z" fill="#e6e7e8"/></g><g><path d="m37.629 19.079c-1.758 0-3.494.261-5.16.776-.528.164-.823.723-.66 1.251.163.527.726.822 1.25.66 1.476-.456 3.013-.688 4.57-.688 8.545 0 15.496 6.952 15.496 15.498v7.142c0 .552.447 1 1 1s1-.448 1-1v-7.142c0-9.647-7.849-17.497-17.496-17.497z" fill="#e6e7e8"/></g><g><path d="m34.139 76.561c-.442-.171-.877-.378-1.29-.614-.001 0-.001 0-.002-.001-3.022-1.725-4.899-4.949-4.899-8.416v-25.259-.001s0-.001 0-.001v-1.579c0-.552-.447-1-1-1s-1 .448-1 1v1.578.001s0 .001 0 .001v25.26c0 4.181 2.263 8.07 5.906 10.151l.003.003c.5.285 1.025.535 1.56.742.119.046.241.068.361.068.4 0 .779-.243.933-.639.198-.516-.058-1.095-.572-1.294z" fill="#e6e7e8"/></g><g><path d="m37.629 24.895c-5.216 0-9.842 3.509-11.25 8.533-.156.557-.271 1.126-.341 1.695-.068.548.321 1.047.869 1.115.042.005.083.007.124.007.498 0 .929-.371.991-.877.059-.468.153-.939.282-1.4 1.167-4.165 5.001-7.073 9.324-7.073 5.338 0 9.681 4.343 9.681 9.682v12.349.002 1.576c0 .552.447 1 1 1s1-.448 1-1v-1.576-.002-12.349c.001-6.442-5.24-11.682-11.68-11.682z" fill="#e6e7e8"/></g><g><path d="m42.493 48.534c-.553 0-1 .448-1 1v17.996c0 2.131-1.733 3.866-3.864 3.866s-3.865-1.734-3.865-3.866v-2.122c0-.552-.447-1-1-1s-1 .448-1 1v2.122c0 3.234 2.631 5.866 5.865 5.866 3.233 0 5.864-2.631 5.864-5.866v-17.996c0-.552-.447-1-1-1z" fill="#e6e7e8"/></g><g><path d="m37.629 30.711c-3.234 0-5.865 2.631-5.865 5.866v20.107c0 .552.447 1 1 1s1-.448 1-1v-20.107c0-2.131 1.734-3.866 3.865-3.866s3.864 1.734 3.864 3.866v6.052c0 .552.447 1 1 1s1-.448 1-1v-6.052c0-3.235-2.631-5.866-5.864-5.866z" fill="#e6e7e8"/></g><g><path d="m36.628 64.492c0 .552.447 1 1 1s1-.448 1-1v-10.505c0-.552-.447-1-1-1s-1 .448-1 1z" fill="#e6e7e8"/></g><g><path d="m37.628 46.575c.553 0 1-.448 1-1v-7.375c0-.552-.447-1-1-1s-1 .448-1 1v7.375c0 .552.447 1 1 1z" fill="#e6e7e8"/></g><g><path d="m121.786 113.447-18.594-18.594c-1.559-1.558-3.778-2.027-5.761-1.461l-3.661-3.661c3.286-4.369 5.065-9.665 5.066-15.24 0-6.795-2.639-13.177-7.432-17.969-6.665-6.665-16.141-8.84-24.647-6.538v-13.408c0-16.062-13.067-29.129-29.129-29.129s-29.128 13.068-29.128 29.129v30.954c0 16.062 13.067 29.129 29.129 29.129 6.243 0 12.028-1.981 16.775-5.337.343.387.695.769 1.064 1.138 4.954 4.954 11.461 7.431 17.969 7.431 5.371 0 10.739-1.692 15.237-5.067l3.644 3.645c-.15.524-.231 1.071-.231 1.632 0 1.57.608 3.043 1.713 4.147l18.594 18.594c1.104 1.104 2.576 1.712 4.146 1.712s3.043-.608 4.147-1.712l1.099-1.099c2.286-2.288 2.286-6.009 0-8.296zm-84.157-18.788c-14.959 0-27.129-12.17-27.129-27.129v-30.954c0-14.959 12.17-27.129 27.129-27.129s27.129 12.17 27.129 27.129v13.928c0 .036.017.067.021.102-1.316.475-2.599 1.063-3.837 1.762v-15.791c0-2.361-.354-4.691-1.05-6.926-.164-.527-.722-.82-1.253-.657-.527.165-.821.725-.657 1.252.637 2.042.96 4.171.96 6.33v17.048c-1.221.849-2.387 1.81-3.475 2.898-.117.117-.227.24-.342.359v-7.347c0-.552-.447-1-1-1s-1 .448-1 1v9.685c-1.675 2.22-2.956 4.681-3.815 7.297v-9.007-1.578c0-.552-.447-1-1-1s-1 .448-1 1v1.578 10.021c0 3.625-2.005 6.919-5.232 8.598-.421.219-.862.408-1.311.562-.522.18-.8.749-.62 1.271.143.415.53.675.945.675.107 0 .218-.018.325-.055.542-.187 1.074-.415 1.582-.679 2.278-1.184 4.03-3.047 5.109-5.257-.044.612-.073 1.226-.073 1.846 0 1.414.121 2.807.345 4.175-2.789 2.694-6.576 4.362-10.752 4.362-8.545 0-15.497-6.953-15.497-15.498v-30.953c0-4.581 2.019-8.905 5.537-11.864.423-.355.478-.986.122-1.409-.356-.422-.986-.478-1.409-.122-3.972 3.34-6.25 8.222-6.25 13.395v30.953c0 9.648 7.85 17.498 17.497 17.498 4.272 0 8.187-1.543 11.228-4.096.337 1.3.779 2.566 1.317 3.79-3.524 2.579-7.853 4.122-12.545 4.122-6.734 0-12.936-3.094-17.013-8.489-.333-.441-.962-.528-1.4-.195-.441.333-.528.96-.195 1.401 4.459 5.899 11.241 9.283 18.608 9.283 5.002 0 9.638-1.589 13.439-4.281.603 1.116 1.294 2.188 2.066 3.21-4.398 3.075-9.742 4.886-15.504 4.886z" fill="#e6e7e8"/></g></g><g><g><path d="m88.434 85.809 4.917 4.917c-.845.261-1.629.724-2.293 1.388s-1.126 1.448-1.388 2.293l-4.917-4.917c.674-.533 1.317-1.116 1.941-1.74s1.207-1.267 1.74-1.941z" fill="#ffd7e5"/></g><path d="m86.698 87.753c-9.518 9.518-25.004 9.518-34.523 0s-9.519-25.005-.001-34.524 25.006-9.518 34.525 0 9.517 25.006-.001 34.524z" fill="#fa759e"/><circle cx="69.436" cy="70.491" fill="#d4fbff" r="18.724"/><g><path d="m56.197 60.251c7.312-7.312 19.167-7.312 26.479 0 3.274 3.274 5.07 7.46 5.413 11.74.422-5.279-1.375-10.702-5.413-14.74-7.312-7.312-19.167-7.312-26.479 0-4.038 4.038-5.834 9.461-5.412 14.74.341-4.28 2.138-8.466 5.412-11.74z" fill="#fff"/></g><path d="m117.079 110.155-18.594-18.594c-1.892-1.892-4.988-1.892-6.88 0l-1.099 1.099c-1.892 1.892-1.892 4.988 0 6.88l18.594 18.594c1.892 1.892 4.988 1.892 6.88 0l1.099-1.099c1.892-1.892 1.892-4.988 0-6.88z" fill="#6dc9f7"/><g fill="#3a2c60"><path d="m12.316 63.53v-19.934c0-.552-.447-1-1-1s-1 .448-1 1v19.934c0 2.824.502 5.586 1.492 8.209.151.4.531.647.936.647.117 0 .237-.021.354-.065.517-.195.777-.772.582-1.289-.905-2.395-1.364-4.92-1.364-7.502z"/><path d="m33.629 11.263c7.38 0 14.136 3.748 18.07 10.025.294.467.911.608 1.379.316.468-.293.609-.91.316-1.378-4.303-6.865-11.692-10.963-19.765-10.963-12.855 0-23.313 10.458-23.313 23.314v4.718c0 .552.447 1 1 1s1-.448 1-1v-4.718c0-11.752 9.561-21.314 21.313-21.314z"/><path d="m33.629 15.079c-1.759 0-3.495.261-5.161.777-.527.163-.822.723-.659 1.251.163.527.721.826 1.251.659 1.474-.456 3.012-.688 4.569-.688 8.545 0 15.496 6.953 15.496 15.498v7.142c0 .552.447 1 1 1s1-.448 1-1v-7.142c0-9.647-7.848-17.497-17.496-17.497z"/><path d="m30.139 72.56c-.442-.171-.877-.378-1.29-.614-.001 0-.001 0-.002-.001-3.022-1.725-4.899-4.949-4.899-8.416v-25.259-.001s0-.001 0-.001v-1.578c0-.552-.447-1-1-1s-1 .448-1 1v1.578.001s0 .001 0 .001v25.26c0 4.181 2.263 8.07 5.906 10.151l.003.003c.5.285 1.025.535 1.56.742.119.046.241.068.361.068.4 0 .779-.243.933-.639.198-.516-.057-1.095-.572-1.295z"/><path d="m33.629 20.895c-5.216 0-9.842 3.509-11.25 8.533v.001c-.156.557-.27 1.127-.341 1.694-.068.548.321 1.047.869 1.115.042.005.083.007.124.007.498 0 .929-.371.991-.877.059-.468.153-.938.282-1.4 1.167-4.165 5.001-7.073 9.324-7.073 5.337 0 9.68 4.343 9.68 9.682v12.349.002 1.576c0 .552.447 1 1 1s1-.448 1-1v-1.576-.002-12.349c.001-6.441-5.238-11.682-11.679-11.682z"/><path d="m38.493 44.534c-.553 0-1 .448-1 1v17.996c0 2.131-1.733 3.866-3.864 3.866s-3.865-1.734-3.865-3.866v-2.121c0-.552-.447-1-1-1s-1 .448-1 1v2.121c0 3.234 2.631 5.866 5.865 5.866 3.233 0 5.864-2.631 5.864-5.866v-17.996c0-.552-.447-1-1-1z"/><path d="m33.629 26.711c-3.234 0-5.865 2.631-5.865 5.866v20.107c0 .552.447 1 1 1s1-.448 1-1v-20.107c0-2.131 1.734-3.866 3.865-3.866s3.864 1.734 3.864 3.866v6.052c0 .552.447 1 1 1s1-.448 1-1v-6.052c0-3.234-2.63-5.866-5.864-5.866z"/><path d="m32.628 60.493c0 .552.447 1 1 1s1-.448 1-1v-10.505c0-.552-.447-1-1-1s-1 .448-1 1z"/><path d="m33.628 42.575c.553 0 1-.448 1-1v-7.375c0-.552-.447-1-1-1s-1 .448-1 1v7.375c0 .552.447 1 1 1z"/><path d="m83.383 56.544c-3.725-3.726-8.678-5.777-13.946-5.777-5.269 0-10.222 2.052-13.947 5.777-7.689 7.69-7.689 20.203 0 27.894 3.726 3.726 8.679 5.777 13.947 5.777s10.222-2.051 13.946-5.777c3.726-3.726 5.777-8.679 5.777-13.947s-2.051-10.222-5.777-13.947zm-1.414 26.48c-3.348 3.348-7.798 5.191-12.532 5.191s-9.186-1.843-12.533-5.191c-6.91-6.911-6.91-18.155 0-25.065 3.348-3.348 7.799-5.191 12.533-5.191s9.185 1.844 12.532 5.191 5.191 7.798 5.191 12.533c0 4.733-1.843 9.184-5.191 12.532z"/><path d="m117.786 109.448-6.223-6.222c-.391-.391-1.023-.391-1.414 0s-.391 1.023 0 1.414l6.223 6.222c1.507 1.507 1.507 3.959 0 5.466l-1.099 1.099c-1.508 1.507-3.959 1.507-5.467 0l-18.593-18.594c-1.507-1.507-1.507-3.959 0-5.466l1.099-1.099c1.508-1.507 3.959-1.507 5.467 0l3.331 3.331c.391.391 1.023.391 1.414 0s.391-1.023 0-1.414l-3.331-3.331c-1.559-1.559-3.779-2.028-5.762-1.462l-3.66-3.66c3.286-4.369 5.066-9.665 5.067-15.241 0-6.795-2.639-13.176-7.432-17.969-6.666-6.666-16.142-8.839-24.648-6.536v-13.41c0-16.062-13.067-29.128-29.129-29.128s-29.13 13.067-29.13 29.128v30.955c0 16.062 13.067 29.128 29.129 29.128 6.243 0 12.017-1.995 16.763-5.352.347.392.703.779 1.077 1.153 4.954 4.954 11.461 7.431 17.969 7.431 5.371 0 10.739-1.692 15.237-5.067l3.663 3.663c-.566 1.983-.096 4.202 1.462 5.76l18.594 18.594c1.144 1.144 2.646 1.715 4.147 1.715s3.004-.572 4.147-1.715l1.099-1.099c2.286-2.287 2.286-6.007 0-8.294zm-84.158-18.789c-14.959 0-27.129-12.17-27.129-27.128v-30.955c0-14.958 12.17-27.128 27.129-27.128s27.129 12.17 27.129 27.128v13.928c0 .037.014.069.018.104-1.315.475-2.596 1.063-3.833 1.76v-15.791c0-2.358-.354-4.688-1.05-6.926-.165-.527-.728-.82-1.252-.657-.527.164-.822.725-.658 1.252.637 2.045.96 4.175.96 6.331v17.048c-1.221.849-2.387 1.81-3.475 2.897-.117.117-.227.24-.342.359v-7.347c0-.552-.447-1-1-1s-1 .448-1 1v9.685c-1.676 2.221-2.957 4.683-3.816 7.3v-10.588c0-.552-.447-1-1-1s-1 .448-1 1v11.599c0 3.625-2.005 6.92-5.231 8.598-.422.219-.863.409-1.312.563-.522.18-.8.749-.62 1.271.143.415.53.675.945.675.107 0 .218-.018.325-.055.542-.187 1.074-.415 1.583-.68 2.278-1.184 4.031-3.048 5.109-5.258-.044.612-.073 1.227-.073 1.847 0 1.406.12 2.793.342 4.154-2.788 2.701-6.568 4.383-10.748 4.383-8.546 0-15.498-6.953-15.498-15.498v-30.953c0-4.58 2.019-8.905 5.538-11.865.423-.355.478-.986.122-1.409-.355-.423-.986-.478-1.409-.122-3.973 3.341-6.251 8.223-6.251 13.395v30.954c0 9.648 7.85 17.498 17.498 17.498 4.276 0 8.18-1.562 11.221-4.12.338 1.307.782 2.58 1.322 3.812-3.524 2.581-7.851 4.125-12.544 4.125-6.734 0-12.936-3.094-17.013-8.489-.333-.441-.963-.527-1.4-.195-.441.333-.528.96-.195 1.401 4.459 5.899 11.241 9.283 18.608 9.283 5.003 0 9.629-1.603 13.43-4.297.602 1.117 1.292 2.189 2.064 3.212-4.397 3.074-9.732 4.899-15.494 4.899zm19.254-3.613c-4.415-4.415-6.846-10.294-6.847-16.555 0-6.261 2.431-12.14 6.846-16.555 4.564-4.564 10.559-6.846 16.556-6.846 5.994 0 11.991 2.283 16.555 6.846 4.415 4.415 6.846 10.294 6.846 16.555s-2.432 12.14-6.847 16.555c-9.13 9.128-23.981 9.127-33.109 0zm33.35 2.507c.399-.352.792-.713 1.172-1.094.38-.38.741-.773 1.094-1.172l3.042 3.042c-.22.165-.443.324-.642.524l-1.099 1.099c-.2.2-.36.423-.525.643z"/><path d="m107.556 102.046c.195.195.451.293.707.293s.512-.098.707-.293c.391-.391.391-1.023 0-1.414l-3.625-3.625c-.391-.391-1.023-.391-1.414 0s-.391 1.023 0 1.414z"/></g></g></g></svg>