<?xml version="1.0" encoding="iso-8859-1"?>
<!-- Generator: Adobe Illustrator 19.0.0, SVG Export Plug-In . SVG Version: 6.00 Build 0)  -->
<svg version="1.1" id="Capa_1" xmlns="http://www.w3.org/2000/svg" xmlns:xlink="http://www.w3.org/1999/xlink" x="0px" y="0px"
	 viewBox="0 0 468.585 468.585" style="enable-background:new 0 0 468.585 468.585;" xml:space="preserve">
<path style="fill:#44C4A1;" d="M376.836,188.871H6.597c-3.643,0-6.597,2.953-6.597,6.597v221.437c0,3.643,2.953,6.597,6.597,6.597
	h269.121l35.586,35.063c3.881,3.824,10.462,1.561,11.171-3.841l4.096-31.222h50.266c3.643,0,6.597-2.953,6.597-6.597V195.468
	C383.433,191.825,380.479,188.871,376.836,188.871z"/>
<path style="fill:#DC8744;" d="M464.819,50.534l-39.823-38.869c-4.936-4.817-12.842-4.721-17.659,0.214l-32.429,33.226
	l57.696,56.314l32.429-33.226C469.851,63.258,469.755,55.351,464.819,50.534z"/>
<g>
	<path style="fill:#D5D6DB;" d="M171.316,316.338H58.188c-3.448,0-6.244-2.796-6.244-6.244s2.796-6.244,6.244-6.244h113.128
		c3.448,0,6.244,2.796,6.244,6.244S174.764,316.338,171.316,316.338z"/>
	<path style="fill:#D5D6DB;" d="M331.654,366.289H58.188c-3.448,0-6.244-2.796-6.244-6.244c0-3.448,2.796-6.244,6.244-6.244h273.466
		c3.448,0,6.244,2.796,6.244,6.244C337.898,363.493,335.102,366.289,331.654,366.289z"/>
	<path style="fill:#D5D6DB;" d="M115.121,266.386H58.188c-3.448,0-6.244-2.796-6.244-6.244c0-3.448,2.796-6.244,6.244-6.244h56.933
		c3.448,0,6.244,2.796,6.244,6.244C121.365,263.591,118.569,266.386,115.121,266.386z"/>
</g>
<polygon style="fill:#E1E6E9;" points="195.493,228.932 171.745,310.976 224.341,257.088 "/>
<polygon style="fill:#D5D6DB;" points="253.189,285.245 224.341,257.088 171.745,310.976 171.744,310.977 "/>
<rect x="273.763" y="36.741" transform="matrix(-0.7156 -0.6985 0.6985 -0.7156 423.4608 502.7596)" style="fill:#FCD462;" width="80.621" height="256.874"/>
<path style="fill:#3A556A;" d="M166.971,307.267c-2.317,2.374-2.271,6.178,0.103,8.495c2.375,2.318,6.177,2.271,8.495-0.103
	l8.392-8.598l-8.598-8.392L166.971,307.267z"/>
<g>
</g>
<g>
</g>
<g>
</g>
<g>
</g>
<g>
</g>
<g>
</g>
<g>
</g>
<g>
</g>
<g>
</g>
<g>
</g>
<g>
</g>
<g>
</g>
<g>
</g>
<g>
</g>
<g>
</g>
</svg>
